# xmcd
#
# Track frame offsets:
#	150
#	12914
#	25602
#	35438
#	45856
#	54681
#	66538
#	81698
#	91893
#	101080
#	112363
#	124690
#	134140
#	144858
#	154495
#	165215
#	179179
#	189210
#	202049
#	211109
#	226116
#	239968
#	252168
#	263447
#	275867
#	286148
#	298313
#	309131
#	320006
#	332957
#	342591
#	354502
#
# Disc length: 4860 seconds
#
# Revision: 0
# Processed by: cddbd v1.5.1PL2 Copyright (c) Steve Scherf et al.
# Submitted via: EasyCDDAExtractor 9.0.0.1
#
DISCID=f412fa20
DTITLE=Jim Reeves - Orlin's Collection
DYEAR=1900
DGENRE=Classic Country
TTITLE0=Suppertime
TTITLE1=Four Walls
TTITLE2=Blue Boy
TTITLE3=He'll Have to Go
TTITLE4=Home
TTITLE5=Am I Losing You
TTITLE6=The Blizzard
TTITLE7=I'm Gettin' Better
TTITLE8=I Know One
TTITLE9=Adios Amigo
TTITLE10=I Love You Because
TTITLE11=I'm Gonna Change Everything
TTITLE12=Welcome to my World
TTITLE13=Is This Me
TTITLE14=I Guess I'm Crazy (for Loving
TTITLE15=This Is It
TTITLE16=Is It Really Over
TTITLE17=Distant Drums
TTITLE18=I Won't Forget You
TTITLE19=Blue Side of Lonesome
TTITLE20=Have Thine Own Way
TTITLE21=A Letter to My Heart
TTITLE22=Carolina Moon
TTITLE23=Not Until the Next Time
TTITLE24=Paper Moon
TTITLE25=Room Full Roses
TTITLE26=Precious Lord, Take My Hand
TTITLE27=That's When I See the Blues (I
TTITLE28=You'll Never Know
TTITLE29=How I Miss You Tonight (Duett)
TTITLE30=Talking Walls
TTITLE31=In a Mansion
EXTD=
EXTT0=
EXTT1=
EXTT2=
EXTT3=
EXTT4=
EXTT5=
EXTT6=
EXTT7=
EXTT8=
EXTT9=
EXTT10=
EXTT11=
EXTT12=
EXTT13=
EXTT14=
EXTT15=
EXTT16=
EXTT17=
EXTT18=
EXTT19=
EXTT20=
EXTT21=
EXTT22=
EXTT23=
EXTT24=
EXTT25=
EXTT26=
EXTT27=
EXTT28=
EXTT29=
EXTT30=
EXTT31=
PLAYORDER=
